<svg width="27" height="27" viewBox="0 0 27 27" fill="none" xmlns="http://www.w3.org/2000/svg">
<g clip-path="url(#clip0_43_2261)">
<path d="M24.2573 3.35053V23.0151C24.2538 23.0575 24.2341 23.0968 24.2023 23.125C24.1891 23.3829 24.0807 23.6268 23.898 23.8094C23.7154 23.992 23.4715 24.1005 23.2136 24.1137H17.4461V15.6546H20.1376C20.3024 15.6546 20.3024 15.6546 20.3573 15.4899L20.5221 14.1166C20.577 13.5673 20.6319 13.018 20.7418 12.4688C20.8517 11.9195 20.7418 12.304 20.6319 12.304H17.4461V10.1617C17.4461 9.99695 17.501 9.77723 17.501 9.61245C17.5249 9.38753 17.6251 9.17759 17.7851 9.01765C17.945 8.85772 18.1549 8.75745 18.3799 8.73358L19.0939 8.62372H20.7418C20.8517 8.62372 20.8517 8.62372 20.8517 8.51387V5.71248C20.8517 5.65755 20.8517 5.60263 20.7418 5.60263H18.2151C17.5889 5.58544 16.9677 5.71722 16.4024 5.98713C15.9843 6.12784 15.5987 6.35106 15.2685 6.64356C14.9382 6.93606 14.6701 7.29188 14.4799 7.68993C14.1666 8.30061 14.0153 8.98148 14.0405 9.66738C13.9855 10.4913 14.0405 11.3702 14.0405 12.249H11.2391C11.1292 12.249 11.1292 12.304 11.1292 12.3589V15.4899C11.1292 15.5997 11.1292 15.5997 11.2391 15.5997H14.0405V24.0588C14.0087 24.087 13.989 24.1263 13.9855 24.1686H3.3293C3.07136 24.1554 2.8275 24.047 2.64488 23.8643C2.46225 23.6817 2.35383 23.4379 2.34057 23.1799C2.28564 23.1799 2.28564 23.125 2.28564 23.0701V3.35053C2.28564 3.29561 2.28564 3.24068 2.34057 3.24068C2.35383 2.98274 2.46225 2.73888 2.64488 2.55626C2.8275 2.37363 3.07136 2.26521 3.3293 2.25195H23.2136C23.4715 2.26521 23.7154 2.37363 23.898 2.55626C24.0807 2.73888 24.1891 2.98274 24.2023 3.24068L24.2573 3.35053Z" fill="white"/>
</g>
<defs>
<clipPath id="clip0_43_2261">
<rect width="26.3659" height="26.3659" fill="white" transform="translate(0.0883789)"/>
</clipPath>
</defs>
</svg>
